<svg xmlns="http://www.w3.org/2000/svg" xmlns:xlink="http://www.w3.org/1999/xlink" width="1056" zoomAndPan="magnify" viewBox="0 0 792 611.999999" height="816" preserveAspectRatio="xMidYMid meet" version="1.0"><defs><clipPath id="4ecf23b30b"><path d="M 113.96875 16.320312 L 677.96875 16.320312 L 677.96875 580.320312 L 113.96875 580.320312 Z M 113.96875 16.320312 " clip-rule="nonzero"/></clipPath></defs><g clip-path="url(#4ecf23b30b)"><path fill="#f15267" d="M 677.96875 298.320312 C 677.96875 454.097656 551.746094 580.320312 395.96875 580.320312 C 240.191406 580.320312 113.96875 454.097656 113.96875 298.320312 C 113.96875 142.542969 240.191406 16.320312 395.96875 16.320312 C 551.746094 16.320312 677.96875 142.542969 677.96875 298.320312 Z M 677.96875 298.320312 " fill-opacity="1" fill-rule="nonzero"/></g><path fill="#ffffff" d="M 574.082031 263.800781 C 574.082031 364.308594 431.277344 447.777344 401.382812 464.246094 C 398 466.164062 393.828125 466.164062 390.441406 464.246094 C 360.550781 447.890625 217.746094 364.421875 217.746094 263.800781 C 217.746094 263.125 217.746094 262.335938 217.746094 261.660156 C 217.746094 261.207031 217.746094 260.644531 217.746094 260.191406 C 217.746094 257.597656 217.859375 255.003906 217.972656 252.410156 C 221.582031 201.535156 259.933594 161.492188 306.746094 161.492188 C 355.925781 161.492188 395.855469 205.710938 395.855469 260.191406 C 395.855469 205.710938 435.789062 161.492188 484.96875 161.492188 C 532.230469 161.492188 570.921875 202.214844 573.855469 253.761719 C 573.96875 255.90625 574.082031 258.050781 574.082031 260.191406 L 574.082031 260.304688 C 574.082031 261.546875 574.082031 262.675781 574.082031 263.800781 Z M 574.082031 263.800781 " fill-opacity="1" fill-rule="nonzero"/></svg>