<svg xmlns="http://www.w3.org/2000/svg" xmlns:xlink="http://www.w3.org/1999/xlink" width="1056" zoomAndPan="magnify" viewBox="0 0 792 611.999999" height="816" preserveAspectRatio="xMidYMid meet" version="1.0"><defs><clipPath id="a54bd23d91"><path d="M 114.617188 30.183594 L 696.617188 30.183594 L 696.617188 612 L 114.617188 612 Z M 114.617188 30.183594 " clip-rule="nonzero"/></clipPath></defs><g clip-path="url(#a54bd23d91)"><path fill="#28a0f6" d="M 696.429688 321.089844 C 696.429688 325.847656 696.3125 330.605469 696.078125 335.363281 C 695.847656 340.117188 695.496094 344.863281 695.027344 349.601562 C 694.5625 354.339844 693.980469 359.0625 693.28125 363.773438 C 692.582031 368.480469 691.769531 373.171875 690.839844 377.839844 C 689.910156 382.511719 688.867188 387.15625 687.710938 391.773438 C 686.554688 396.390625 685.285156 400.976562 683.902344 405.535156 C 682.523438 410.089844 681.027344 414.609375 679.425781 419.089844 C 677.820312 423.574219 676.109375 428.015625 674.285156 432.414062 C 672.464844 436.8125 670.535156 441.164062 668.5 445.464844 C 666.464844 449.769531 664.324219 454.023438 662.078125 458.21875 C 659.835938 462.417969 657.488281 466.558594 655.042969 470.644531 C 652.59375 474.726562 650.046875 478.75 647.402344 482.707031 C 644.757812 486.664062 642.019531 490.558594 639.183594 494.382812 C 636.34375 498.203125 633.417969 501.957031 630.398438 505.636719 C 627.378906 509.316406 624.269531 512.921875 621.070312 516.449219 C 617.875 519.976562 614.59375 523.421875 611.226562 526.789062 C 607.859375 530.15625 604.410156 533.4375 600.882812 536.636719 C 597.355469 539.832031 593.753906 542.941406 590.074219 545.960938 C 586.390625 548.980469 582.640625 551.910156 578.816406 554.746094 C 574.992188 557.582031 571.101562 560.324219 567.140625 562.96875 C 563.183594 565.613281 559.164062 568.160156 555.078125 570.605469 C 550.996094 573.054688 546.855469 575.398438 542.65625 577.644531 C 538.457031 579.890625 534.207031 582.027344 529.902344 584.0625 C 525.597656 586.101562 521.246094 588.027344 516.847656 589.851562 C 512.449219 591.671875 508.007812 593.386719 503.527344 594.988281 C 499.042969 596.59375 494.523438 598.085938 489.96875 599.46875 C 485.414062 600.851562 480.828125 602.121094 476.207031 603.277344 C 471.589844 604.433594 466.945312 605.476562 462.277344 606.40625 C 457.605469 607.332031 452.917969 608.148438 448.207031 608.847656 C 443.5 609.542969 438.773438 610.128906 434.039062 610.59375 C 429.300781 611.058594 424.554688 611.410156 419.796875 611.644531 C 415.042969 611.878906 410.285156 611.996094 405.523438 611.996094 C 400.761719 611.996094 396.003906 611.878906 391.25 611.644531 C 386.496094 611.410156 381.746094 611.058594 377.011719 610.59375 C 372.273438 610.128906 367.546875 609.542969 362.839844 608.847656 C 358.128906 608.148438 353.441406 607.332031 348.769531 606.40625 C 344.101562 605.476562 339.457031 604.433594 334.839844 603.277344 C 330.222656 602.121094 325.632812 600.851562 321.078125 599.46875 C 316.523438 598.085938 312.003906 596.59375 307.519531 594.988281 C 303.039062 593.386719 298.597656 591.671875 294.199219 589.851562 C 289.800781 588.027344 285.449219 586.101562 281.144531 584.0625 C 276.839844 582.027344 272.589844 579.890625 268.390625 577.644531 C 264.191406 575.398438 260.050781 573.054688 255.96875 570.605469 C 251.882812 568.160156 247.863281 565.613281 243.90625 562.96875 C 239.945312 560.324219 236.054688 557.582031 232.230469 554.746094 C 228.40625 551.910156 224.65625 548.980469 220.976562 545.960938 C 217.292969 542.941406 213.691406 539.832031 210.164062 536.636719 C 206.636719 533.4375 203.1875 530.15625 199.820312 526.789062 C 196.457031 523.421875 193.171875 519.976562 189.976562 516.449219 C 186.777344 512.921875 183.671875 509.316406 180.648438 505.636719 C 177.628906 501.957031 174.703125 498.203125 171.867188 494.382812 C 169.03125 490.558594 166.289062 486.664062 163.644531 482.707031 C 161 478.75 158.453125 474.726562 156.003906 470.644531 C 153.558594 466.558594 151.210938 462.417969 148.96875 458.21875 C 146.722656 454.023438 144.582031 449.769531 142.546875 445.464844 C 140.511719 441.164062 138.582031 436.8125 136.761719 432.414062 C 134.9375 428.015625 133.226562 423.574219 131.621094 419.089844 C 130.019531 414.609375 128.527344 410.089844 127.144531 405.535156 C 125.761719 400.976562 124.492188 396.390625 123.335938 391.773438 C 122.179688 387.15625 121.136719 382.511719 120.207031 377.839844 C 119.277344 373.171875 118.464844 368.480469 117.765625 363.773438 C 117.066406 359.0625 116.484375 354.339844 116.019531 349.601562 C 115.550781 344.863281 115.203125 340.117188 114.96875 335.363281 C 114.734375 330.605469 114.617188 325.847656 114.617188 321.089844 C 114.617188 316.328125 114.734375 311.570312 114.96875 306.8125 C 115.203125 302.058594 115.550781 297.3125 116.019531 292.574219 C 116.484375 287.835938 117.066406 283.113281 117.765625 278.402344 C 118.464844 273.695312 119.277344 269.003906 120.207031 264.335938 C 121.136719 259.664062 122.179688 255.023438 123.335938 250.402344 C 124.492188 245.785156 125.761719 241.199219 127.144531 236.644531 C 128.527344 232.085938 130.019531 227.566406 131.621094 223.085938 C 133.226562 218.601562 134.9375 214.160156 136.761719 209.761719 C 138.582031 205.363281 140.511719 201.011719 142.546875 196.710938 C 144.582031 192.40625 146.722656 188.15625 148.96875 183.957031 C 151.210938 179.757812 153.558594 175.617188 156.003906 171.53125 C 158.453125 167.449219 161 163.429688 163.644531 159.46875 C 166.289062 155.511719 169.03125 151.621094 171.867188 147.796875 C 174.703125 143.972656 177.628906 140.21875 180.648438 136.539062 C 183.671875 132.859375 186.777344 129.253906 189.976562 125.726562 C 193.171875 122.199219 196.457031 118.753906 199.820312 115.386719 C 203.1875 112.019531 206.636719 108.738281 210.164062 105.539062 C 213.691406 102.34375 217.292969 99.234375 220.976562 96.214844 C 224.65625 93.195312 228.40625 90.265625 232.230469 87.429688 C 236.054688 84.59375 239.945312 81.851562 243.90625 79.207031 C 247.863281 76.5625 251.882812 74.015625 255.96875 71.570312 C 260.050781 69.121094 264.191406 66.777344 268.390625 64.53125 C 272.589844 62.289062 276.839844 60.148438 281.144531 58.113281 C 285.449219 56.078125 289.800781 54.148438 294.199219 52.324219 C 298.597656 50.503906 303.039062 48.792969 307.519531 47.1875 C 312.003906 45.582031 316.523438 44.089844 321.078125 42.707031 C 325.632812 41.328125 330.222656 40.058594 334.839844 38.898438 C 339.457031 37.742188 344.101562 36.699219 348.769531 35.773438 C 353.441406 34.84375 358.128906 34.027344 362.839844 33.332031 C 367.546875 32.632812 372.273438 32.050781 377.011719 31.582031 C 381.746094 31.117188 386.496094 30.765625 391.25 30.53125 C 396.003906 30.296875 400.761719 30.183594 405.523438 30.183594 C 410.285156 30.183594 415.042969 30.296875 419.796875 30.53125 C 424.554688 30.765625 429.300781 31.117188 434.039062 31.582031 C 438.773438 32.050781 443.5 32.632812 448.207031 33.332031 C 452.917969 34.027344 457.605469 34.84375 462.277344 35.773438 C 466.945312 36.699219 471.589844 37.742188 476.207031 38.898438 C 480.828125 40.058594 485.414062 41.328125 489.96875 42.707031 C 494.523438 44.089844 499.042969 45.582031 503.527344 47.1875 C 508.007812 48.792969 512.449219 50.503906 516.847656 52.324219 C 521.246094 54.148438 525.597656 56.078125 529.902344 58.113281 C 534.207031 60.148438 538.457031 62.289062 542.65625 64.53125 C 546.855469 66.777344 550.996094 69.121094 555.078125 71.570312 C 559.164062 74.015625 563.183594 76.5625 567.140625 79.207031 C 571.101562 81.851562 574.992188 84.59375 578.816406 87.429688 C 582.640625 90.265625 586.390625 93.195312 590.074219 96.214844 C 593.753906 99.234375 597.355469 102.34375 600.882812 105.539062 C 604.410156 108.738281 607.859375 112.019531 611.226562 115.386719 C 614.59375 118.753906 617.875 122.199219 621.070312 125.726562 C 624.269531 129.253906 627.378906 132.859375 630.398438 136.539062 C 633.417969 140.21875 636.34375 143.972656 639.183594 147.796875 C 642.019531 151.621094 644.757812 155.511719 647.402344 159.46875 C 650.046875 163.429688 652.59375 167.449219 655.042969 171.53125 C 657.488281 175.617188 659.835938 179.757812 662.078125 183.957031 C 664.324219 188.15625 666.464844 192.40625 668.5 196.710938 C 670.535156 201.011719 672.464844 205.363281 674.285156 209.761719 C 676.109375 214.160156 677.820312 218.601562 679.425781 223.085938 C 681.027344 227.566406 682.523438 232.085938 683.902344 236.640625 C 685.285156 241.199219 686.554688 245.785156 687.710938 250.402344 C 688.867188 255.023438 689.910156 259.664062 690.839844 264.335938 C 691.769531 269.003906 692.582031 273.695312 693.28125 278.402344 C 693.980469 283.113281 694.5625 287.835938 695.027344 292.574219 C 695.496094 297.3125 695.847656 302.058594 696.078125 306.8125 C 696.3125 311.570312 696.429688 316.328125 696.429688 321.089844 Z M 696.429688 321.089844 " fill-opacity="1" fill-rule="nonzero"/></g><path fill="#ffffff" d="M 497.84375 375.132812 C 495.707031 375.128906 493.578125 375.246094 491.453125 375.476562 C 489.332031 375.710938 487.226562 376.058594 485.144531 376.523438 C 483.058594 376.988281 481.007812 377.566406 478.984375 378.253906 C 476.964844 378.945312 474.988281 379.746094 473.054688 380.65625 C 471.121094 381.5625 469.246094 382.574219 467.425781 383.691406 C 465.605469 384.808594 463.847656 386.019531 462.164062 387.328125 C 460.476562 388.636719 458.863281 390.035156 457.332031 391.523438 C 455.796875 393.011719 454.351562 394.578125 452.992188 396.222656 L 326.765625 336.433594 C 327.476562 332.75 327.835938 329.03125 327.84375 325.277344 C 327.839844 320.941406 327.355469 316.65625 326.394531 312.425781 L 454.050781 247.261719 C 454.792969 248.105469 455.5625 248.925781 456.351562 249.726562 C 457.140625 250.527344 457.953125 251.304688 458.789062 252.054688 C 459.625 252.808594 460.480469 253.535156 461.359375 254.238281 C 462.234375 254.941406 463.132812 255.621094 464.046875 256.269531 C 464.964844 256.921875 465.898438 257.546875 466.851562 258.144531 C 467.804688 258.742188 468.773438 259.308594 469.761719 259.851562 C 470.746094 260.390625 471.746094 260.902344 472.761719 261.386719 C 473.777344 261.867188 474.804688 262.320312 475.847656 262.746094 C 476.890625 263.167969 477.941406 263.5625 479.007812 263.921875 C 480.070312 264.285156 481.144531 264.617188 482.226562 264.917969 C 483.3125 265.214844 484.402344 265.484375 485.503906 265.722656 C 486.601562 265.957031 487.707031 266.164062 488.816406 266.335938 C 489.929688 266.507812 491.042969 266.648438 492.164062 266.757812 C 493.28125 266.863281 494.402344 266.941406 495.527344 266.984375 C 496.648438 267.027344 497.773438 267.035156 498.898438 267.015625 C 500.023438 266.992188 501.144531 266.9375 502.265625 266.851562 C 503.386719 266.761719 504.503906 266.644531 505.617188 266.492188 C 506.730469 266.339844 507.839844 266.15625 508.945312 265.941406 C 510.046875 265.722656 511.144531 265.476562 512.230469 265.195312 C 513.320312 264.917969 514.402344 264.605469 515.472656 264.261719 C 516.542969 263.921875 517.601562 263.546875 518.652344 263.144531 C 519.703125 262.738281 520.738281 262.304688 521.761719 261.84375 C 522.785156 261.378906 523.796875 260.886719 524.792969 260.363281 C 525.789062 259.839844 526.769531 259.289062 527.730469 258.710938 C 528.695312 258.132812 529.640625 257.527344 530.570312 256.890625 C 531.5 256.257812 532.40625 255.597656 533.296875 254.910156 C 534.1875 254.222656 535.058594 253.511719 535.90625 252.773438 C 536.757812 252.039062 537.582031 251.277344 538.386719 250.492188 C 539.191406 249.707031 539.972656 248.898438 540.730469 248.070312 C 541.492188 247.238281 542.222656 246.386719 542.933594 245.515625 C 543.640625 244.640625 544.324219 243.75 544.980469 242.835938 C 545.636719 241.925781 546.269531 240.996094 546.871094 240.046875 C 547.476562 239.097656 548.050781 238.132812 548.597656 237.148438 C 549.144531 236.167969 549.664062 235.167969 550.152344 234.15625 C 550.640625 233.144531 551.101562 232.121094 551.53125 231.082031 C 551.960938 230.042969 552.359375 228.992188 552.730469 227.929688 C 553.097656 226.867188 553.4375 225.796875 553.742188 224.714844 C 554.050781 223.632812 554.324219 222.542969 554.570312 221.445312 C 554.8125 220.347656 555.023438 219.242188 555.203125 218.132812 C 555.382812 217.023438 555.53125 215.910156 555.648438 214.792969 C 555.761719 213.671875 555.84375 212.550781 555.894531 211.429688 C 555.945312 210.304688 555.964844 209.183594 555.949219 208.058594 C 555.933594 206.933594 555.886719 205.8125 555.804688 204.691406 C 555.726562 203.566406 555.613281 202.449219 555.46875 201.335938 C 555.324219 200.21875 555.148438 199.109375 554.9375 198.003906 C 554.730469 196.902344 554.488281 195.804688 554.214844 194.710938 C 553.941406 193.621094 553.640625 192.539062 553.304688 191.464844 C 552.96875 190.394531 552.601562 189.332031 552.207031 188.277344 C 551.808594 187.226562 551.382812 186.1875 550.925781 185.160156 C 550.46875 184.132812 549.980469 183.121094 549.464844 182.121094 C 548.949219 181.121094 548.40625 180.140625 547.832031 179.171875 C 547.257812 178.203125 546.65625 177.253906 546.03125 176.320312 C 545.402344 175.390625 544.746094 174.476562 544.066406 173.582031 C 543.386719 172.6875 542.679688 171.8125 541.949219 170.957031 C 541.214844 170.105469 540.460938 169.273438 539.679688 168.460938 C 538.902344 167.652344 538.097656 166.867188 537.273438 166.101562 C 536.449219 165.339844 535.601562 164.601562 534.734375 163.886719 C 533.863281 163.171875 532.976562 162.484375 532.070312 161.820312 C 531.160156 161.15625 530.234375 160.519531 529.289062 159.910156 C 528.34375 159.300781 527.382812 158.722656 526.402344 158.167969 C 525.425781 157.613281 524.429688 157.089844 523.421875 156.59375 C 522.414062 156.097656 521.390625 155.632812 520.355469 155.195312 C 519.320312 154.757812 518.269531 154.351562 517.210938 153.976562 C 516.152344 153.601562 515.082031 153.253906 514.003906 152.941406 C 512.921875 152.628906 511.835938 152.34375 510.738281 152.09375 C 509.644531 151.84375 508.539062 151.625 507.433594 151.4375 C 506.324219 151.25 505.210938 151.097656 504.09375 150.972656 C 502.976562 150.851562 501.855469 150.761719 500.730469 150.703125 C 499.609375 150.644531 498.484375 150.621094 497.359375 150.628906 C 496.238281 150.636719 495.113281 150.675781 493.992188 150.75 C 492.871094 150.820312 491.75 150.925781 490.636719 151.066406 C 489.519531 151.203125 488.40625 151.371094 487.300781 151.574219 C 486.195312 151.777344 485.097656 152.007812 484.003906 152.273438 C 482.910156 152.539062 481.828125 152.835938 480.753906 153.167969 C 479.675781 153.496094 478.613281 153.855469 477.558594 154.242188 C 476.503906 154.632812 475.460938 155.054688 474.429688 155.503906 C 473.402344 155.957031 472.386719 156.4375 471.382812 156.945312 C 470.378906 157.453125 469.394531 157.992188 468.421875 158.558594 C 467.453125 159.125 466.496094 159.71875 465.5625 160.34375 C 464.625 160.964844 463.707031 161.613281 462.808594 162.289062 C 461.910156 162.964844 461.03125 163.664062 460.171875 164.390625 C 459.3125 165.117188 458.476562 165.867188 457.660156 166.640625 C 456.847656 167.414062 456.054688 168.210938 455.285156 169.03125 C 454.515625 169.851562 453.773438 170.695312 453.050781 171.558594 C 452.332031 172.421875 451.636719 173.304688 450.96875 174.210938 C 450.300781 175.113281 449.660156 176.035156 449.042969 176.976562 C 448.429688 177.917969 447.839844 178.875 447.28125 179.851562 C 446.722656 180.828125 446.191406 181.816406 445.6875 182.824219 C 445.1875 183.828125 444.710938 184.847656 444.269531 185.882812 C 443.828125 186.914062 443.414062 187.960938 443.03125 189.015625 C 442.648438 190.074219 442.296875 191.140625 441.976562 192.21875 C 441.65625 193.296875 441.363281 194.382812 441.105469 195.476562 C 440.847656 196.570312 440.625 197.671875 440.429688 198.78125 C 440.234375 199.886719 440.074219 201 439.945312 202.117188 C 439.8125 203.234375 439.71875 204.351562 439.652344 205.476562 C 439.585938 206.597656 439.554688 207.71875 439.554688 208.84375 C 439.5625 213.175781 440.039062 217.453125 440.988281 221.679688 L 313.222656 286.863281 C 312.570312 286.121094 311.902344 285.398438 311.21875 284.695312 C 310.53125 283.988281 309.828125 283.300781 309.105469 282.632812 C 308.382812 281.960938 307.644531 281.3125 306.890625 280.679688 C 306.136719 280.046875 305.367188 279.433594 304.578125 278.839844 C 303.792969 278.246094 302.992188 277.675781 302.179688 277.121094 C 301.363281 276.570312 300.535156 276.039062 299.695312 275.527344 C 298.851562 275.015625 298 274.527344 297.132812 274.058594 C 296.265625 273.59375 295.386719 273.148438 294.5 272.726562 C 293.609375 272.300781 292.710938 271.902344 291.800781 271.527344 C 290.890625 271.148438 289.972656 270.792969 289.046875 270.464844 C 288.117188 270.132812 287.183594 269.828125 286.238281 269.542969 C 285.296875 269.261719 284.347656 269.003906 283.390625 268.765625 C 282.433594 268.53125 281.472656 268.324219 280.507812 268.136719 C 279.539062 267.949219 278.570312 267.789062 277.59375 267.652344 C 276.617188 267.515625 275.640625 267.402344 274.660156 267.316406 C 273.679688 267.230469 272.699219 267.167969 271.714844 267.128906 C 270.730469 267.09375 269.746094 267.082031 268.761719 267.09375 C 267.777344 267.105469 266.792969 267.144531 265.8125 267.207031 C 264.828125 267.269531 263.847656 267.355469 262.871094 267.46875 C 261.890625 267.582031 260.917969 267.71875 259.945312 267.878906 C 258.976562 268.042969 258.007812 268.226562 257.046875 268.4375 C 256.085938 268.648438 255.128906 268.886719 254.179688 269.144531 C 253.230469 269.402344 252.289062 269.6875 251.351562 269.992188 C 250.417969 270.300781 249.488281 270.632812 248.570312 270.984375 C 247.652344 271.339844 246.742188 271.71875 245.84375 272.117188 C 244.945312 272.519531 244.054688 272.941406 243.179688 273.386719 C 242.300781 273.832031 241.433594 274.300781 240.578125 274.789062 C 239.726562 275.277344 238.882812 275.789062 238.054688 276.320312 C 237.226562 276.855469 236.414062 277.40625 235.613281 277.980469 C 234.8125 278.554688 234.027344 279.148438 233.257812 279.761719 C 232.488281 280.375 231.734375 281.003906 230.996094 281.65625 C 230.257812 282.308594 229.535156 282.980469 228.832031 283.667969 C 228.128906 284.355469 227.441406 285.058594 226.773438 285.785156 C 226.105469 286.507812 225.457031 287.246094 224.824219 288 C 224.195312 288.757812 223.582031 289.527344 222.992188 290.316406 C 222.398438 291.101562 221.828125 291.90625 221.277344 292.71875 C 220.726562 293.535156 220.195312 294.367188 219.6875 295.207031 C 219.179688 296.050781 218.691406 296.90625 218.226562 297.773438 C 217.761719 298.640625 217.316406 299.519531 216.898438 300.410156 C 216.476562 301.300781 216.078125 302.199219 215.703125 303.109375 C 215.328125 304.019531 214.976562 304.941406 214.648438 305.867188 C 214.320312 306.796875 214.015625 307.730469 213.734375 308.675781 C 213.453125 309.621094 213.195312 310.570312 212.964844 311.527344 C 212.730469 312.484375 212.523438 313.445312 212.339844 314.410156 C 212.152344 315.378906 211.996094 316.351562 211.859375 317.324219 C 211.726562 318.300781 211.617188 319.277344 211.53125 320.257812 C 211.445312 321.242188 211.386719 322.222656 211.351562 323.207031 C 211.316406 324.191406 211.304688 325.175781 211.320312 326.160156 C 211.335938 327.144531 211.375 328.125 211.4375 329.109375 C 211.503906 330.089844 211.59375 331.070312 211.707031 332.050781 C 211.820312 333.027344 211.960938 334 212.125 334.972656 C 212.289062 335.945312 212.476562 336.910156 212.6875 337.871094 C 212.902344 338.832031 213.140625 339.785156 213.402344 340.734375 C 213.660156 341.683594 213.949219 342.628906 214.257812 343.5625 C 214.566406 344.496094 214.898438 345.421875 215.253906 346.339844 C 215.609375 347.257812 215.988281 348.167969 216.390625 349.066406 C 216.792969 349.964844 217.21875 350.851562 217.667969 351.730469 C 218.113281 352.605469 218.582031 353.472656 219.074219 354.324219 C 219.566406 355.175781 220.078125 356.019531 220.613281 356.84375 C 221.144531 357.671875 221.699219 358.484375 222.273438 359.285156 C 222.851562 360.082031 223.445312 360.867188 224.058594 361.636719 C 224.675781 362.40625 225.308594 363.15625 225.960938 363.894531 C 226.613281 364.632812 227.285156 365.351562 227.976562 366.054688 C 228.664062 366.757812 229.371094 367.441406 230.097656 368.109375 C 230.820312 368.773438 231.5625 369.421875 232.320312 370.050781 C 233.078125 370.679688 233.847656 371.289062 234.636719 371.878906 C 235.425781 372.46875 236.226562 373.039062 237.046875 373.589844 C 237.863281 374.136719 238.691406 374.667969 239.535156 375.171875 C 240.382812 375.679688 241.238281 376.164062 242.105469 376.628906 C 242.972656 377.09375 243.855469 377.535156 244.746094 377.953125 C 245.636719 378.371094 246.535156 378.769531 247.449219 379.140625 C 248.359375 379.515625 249.277344 379.863281 250.207031 380.191406 C 251.136719 380.519531 252.074219 380.820312 253.015625 381.101562 C 253.960938 381.378906 254.910156 381.632812 255.867188 381.863281 C 256.824219 382.09375 257.789062 382.300781 258.753906 382.484375 C 259.722656 382.664062 260.695312 382.824219 261.671875 382.957031 C 262.644531 383.089844 263.625 383.195312 264.605469 383.277344 C 265.585938 383.363281 266.570312 383.421875 267.550781 383.453125 C 268.535156 383.488281 269.519531 383.496094 270.503906 383.476562 C 271.488281 383.460938 272.472656 383.417969 273.453125 383.351562 C 274.4375 383.285156 275.417969 383.195312 276.394531 383.078125 C 277.371094 382.960938 278.347656 382.820312 279.316406 382.65625 C 280.289062 382.488281 281.253906 382.296875 282.214844 382.082031 C 283.175781 381.867188 284.128906 381.628906 285.078125 381.367188 C 286.027344 381.101562 286.96875 380.816406 287.902344 380.503906 C 288.835938 380.191406 289.761719 379.859375 290.679688 379.5 C 291.59375 379.140625 292.503906 378.761719 293.402344 378.355469 C 294.296875 377.953125 295.183594 377.527344 296.0625 377.078125 C 296.9375 376.628906 297.800781 376.15625 298.652344 375.664062 C 299.507812 375.171875 300.34375 374.65625 301.171875 374.121094 C 301.996094 373.585938 302.808594 373.03125 303.605469 372.453125 C 304.40625 371.875 305.1875 371.28125 305.957031 370.664062 C 306.722656 370.046875 307.472656 369.410156 308.210938 368.757812 C 308.945312 368.101562 309.664062 367.429688 310.363281 366.738281 C 311.066406 366.046875 311.75 365.339844 312.414062 364.613281 C 313.078125 363.886719 313.726562 363.144531 314.355469 362.386719 L 440.632812 422.175781 C 440.445312 423.148438 440.277344 424.128906 440.136719 425.109375 C 439.996094 426.089844 439.882812 427.074219 439.792969 428.0625 C 439.703125 429.050781 439.636719 430.039062 439.597656 431.03125 C 439.558594 432.023438 439.542969 433.015625 439.554688 434.003906 C 439.566406 434.996094 439.601562 435.988281 439.664062 436.976562 C 439.726562 437.96875 439.8125 438.957031 439.925781 439.941406 C 440.039062 440.925781 440.175781 441.910156 440.339844 442.886719 C 440.5 443.863281 440.6875 444.839844 440.898438 445.808594 C 441.113281 446.777344 441.347656 447.738281 441.609375 448.695312 C 441.871094 449.652344 442.15625 450.601562 442.46875 451.542969 C 442.777344 452.484375 443.113281 453.417969 443.46875 454.34375 C 443.828125 455.269531 444.207031 456.183594 444.613281 457.089844 C 445.015625 457.996094 445.445312 458.890625 445.894531 459.773438 C 446.34375 460.660156 446.816406 461.53125 447.3125 462.390625 C 447.808594 463.25 448.324219 464.097656 448.863281 464.929688 C 449.398438 465.761719 449.957031 466.582031 450.539062 467.386719 C 451.117188 468.191406 451.71875 468.980469 452.339844 469.753906 C 452.957031 470.527344 453.597656 471.285156 454.257812 472.027344 C 454.914062 472.769531 455.59375 473.492188 456.289062 474.199219 C 456.984375 474.90625 457.699219 475.59375 458.429688 476.265625 C 459.160156 476.933594 459.910156 477.585938 460.671875 478.21875 C 461.4375 478.847656 462.21875 479.460938 463.011719 480.054688 C 463.808594 480.644531 464.617188 481.214844 465.445312 481.765625 C 466.269531 482.316406 467.105469 482.847656 467.960938 483.355469 C 468.8125 483.863281 469.675781 484.347656 470.550781 484.8125 C 471.429688 485.277344 472.316406 485.71875 473.214844 486.136719 C 474.117188 486.554688 475.023438 486.949219 475.945312 487.320312 C 476.863281 487.691406 477.792969 488.039062 478.730469 488.363281 C 479.667969 488.6875 480.613281 488.988281 481.5625 489.265625 C 482.515625 489.542969 483.476562 489.792969 484.441406 490.019531 C 485.40625 490.246094 486.378906 490.449219 487.351562 490.625 C 488.328125 490.804688 489.308594 490.957031 490.292969 491.082031 C 491.277344 491.210938 492.261719 491.3125 493.25 491.390625 C 494.238281 491.46875 495.230469 491.519531 496.222656 491.546875 C 497.214844 491.570312 498.203125 491.574219 499.195312 491.546875 C 500.1875 491.523438 501.175781 491.472656 502.167969 491.398438 C 503.15625 491.324219 504.140625 491.222656 505.125 491.097656 C 506.109375 490.972656 507.089844 490.824219 508.066406 490.648438 C 509.042969 490.472656 510.011719 490.273438 510.980469 490.046875 C 511.945312 489.820312 512.90625 489.574219 513.859375 489.296875 C 514.8125 489.023438 515.757812 488.726562 516.695312 488.402344 C 517.632812 488.082031 518.5625 487.734375 519.480469 487.363281 C 520.402344 486.996094 521.3125 486.601562 522.210938 486.183594 C 523.113281 485.769531 524 485.328125 524.878906 484.867188 C 525.757812 484.40625 526.621094 483.921875 527.476562 483.414062 C 528.328125 482.910156 529.167969 482.382812 529.992188 481.832031 C 530.820312 481.285156 531.632812 480.714844 532.429688 480.125 C 533.226562 479.535156 534.007812 478.921875 534.773438 478.292969 C 535.539062 477.664062 536.285156 477.011719 537.019531 476.34375 C 537.75 475.675781 538.464844 474.988281 539.164062 474.285156 C 539.859375 473.578125 540.539062 472.855469 541.199219 472.117188 C 541.859375 471.375 542.5 470.621094 543.125 469.847656 C 543.746094 469.074219 544.347656 468.285156 544.929688 467.480469 C 545.511719 466.679688 546.070312 465.859375 546.609375 465.027344 C 547.148438 464.195312 547.667969 463.351562 548.164062 462.492188 C 548.660156 461.632812 549.136719 460.765625 549.585938 459.882812 C 550.039062 459 550.46875 458.105469 550.875 457.199219 C 551.28125 456.292969 551.664062 455.378906 552.023438 454.457031 C 552.382812 453.53125 552.71875 452.597656 553.03125 451.65625 C 553.34375 450.714844 553.628906 449.765625 553.894531 448.8125 C 554.15625 447.855469 554.394531 446.890625 554.609375 445.921875 C 554.824219 444.957031 555.015625 443.980469 555.179688 443.003906 C 555.34375 442.027344 555.484375 441.042969 555.597656 440.058594 C 555.710938 439.074219 555.800781 438.085938 555.863281 437.097656 C 555.929688 436.105469 555.964844 435.117188 555.980469 434.125 C 555.992188 433.132812 555.980469 432.140625 555.941406 431.148438 C 555.90625 430.160156 555.84375 429.167969 555.753906 428.183594 C 555.667969 427.195312 555.554688 426.210938 555.414062 425.226562 C 555.277344 424.246094 555.113281 423.265625 554.925781 422.292969 C 554.738281 421.320312 554.523438 420.351562 554.285156 419.386719 C 554.046875 418.425781 553.785156 417.46875 553.5 416.519531 C 553.210938 415.570312 552.902344 414.628906 552.566406 413.695312 C 552.230469 412.761719 551.875 411.835938 551.492188 410.921875 C 551.109375 410.007812 550.703125 409.101562 550.277344 408.207031 C 549.847656 407.3125 549.398438 406.429688 548.921875 405.558594 C 548.449219 404.6875 547.953125 403.828125 547.4375 402.980469 C 546.917969 402.136719 546.382812 401.304688 545.820312 400.484375 C 545.261719 399.664062 544.679688 398.863281 544.078125 398.074219 C 543.480469 397.285156 542.859375 396.511719 542.21875 395.753906 C 541.578125 394.996094 540.917969 394.253906 540.238281 393.53125 C 539.5625 392.808594 538.863281 392.101562 538.148438 391.414062 C 537.4375 390.726562 536.703125 390.058594 535.957031 389.40625 C 535.207031 388.757812 534.441406 388.125 533.660156 387.515625 C 532.878906 386.902344 532.085938 386.3125 531.273438 385.742188 C 530.460938 385.167969 529.636719 384.621094 528.796875 384.089844 C 527.957031 383.5625 527.105469 383.054688 526.242188 382.570312 C 525.375 382.085938 524.5 381.625 523.609375 381.183594 C 522.722656 380.742188 521.824219 380.324219 520.914062 379.929688 C 520.003906 379.535156 519.082031 379.164062 518.152344 378.820312 C 517.226562 378.472656 516.289062 378.148438 515.34375 377.847656 C 514.398438 377.550781 513.445312 377.273438 512.484375 377.023438 C 511.523438 376.773438 510.558594 376.546875 509.589844 376.34375 C 508.617188 376.144531 507.640625 375.96875 506.660156 375.816406 C 505.679688 375.664062 504.699219 375.539062 503.710938 375.4375 C 502.726562 375.335938 501.734375 375.257812 500.746094 375.207031 C 499.753906 375.15625 498.765625 375.132812 497.773438 375.132812 Z M 497.84375 375.132812 " fill-opacity="1" fill-rule="nonzero"/></svg>