<svg xmlns="http://www.w3.org/2000/svg" xmlns:xlink="http://www.w3.org/1999/xlink" width="1056" zoomAndPan="magnify" viewBox="0 0 792 611.999999" height="816" preserveAspectRatio="xMidYMid meet" version="1.0"><defs><clipPath id="0a71ec44ec"><path d="M 107.746094 17.746094 L 684.496094 17.746094 L 684.496094 594.496094 L 107.746094 594.496094 Z M 107.746094 17.746094 " clip-rule="nonzero"/></clipPath></defs><g clip-path="url(#0a71ec44ec)"><path fill="#25d366" d="M 607.980469 594.496094 L 184.261719 594.496094 C 141.96875 594.496094 107.746094 560.277344 107.746094 517.980469 L 107.746094 94.261719 C 107.746094 51.96875 141.96875 17.746094 184.261719 17.746094 L 608.367188 17.746094 C 650.660156 17.746094 684.882812 51.96875 684.882812 94.261719 L 684.882812 518.367188 C 684.496094 560.277344 650.277344 594.496094 607.980469 594.496094 Z M 607.980469 594.496094 " fill-opacity="1" fill-rule="nonzero"/></g><path fill="#ffffff" d="M 534.542969 160.011719 C 498.398438 123.871094 450.335938 103.875 399.199219 103.875 C 293.460938 103.875 207.71875 189.617188 207.71875 295.355469 C 207.71875 329.191406 216.5625 362.257812 233.480469 391.097656 L 206.179688 490.296875 L 307.6875 463.765625 C 335.757812 479.148438 367.285156 487.222656 399.199219 487.222656 C 504.9375 487.222656 590.679688 401.09375 590.679688 295.742188 C 590.296875 244.21875 570.683594 196.15625 534.542969 160.011719 Z M 398.8125 454.925781 C 370.359375 454.925781 342.292969 447.234375 317.683594 432.621094 L 311.917969 429.164062 L 251.550781 444.925781 L 267.699219 386.097656 L 263.855469 379.945312 C 248.089844 354.570312 239.632812 325.347656 239.632812 295.355469 C 239.632812 207.691406 311.148438 136.171875 398.8125 136.171875 C 441.492188 136.171875 481.480469 152.707031 511.472656 182.699219 C 541.464844 212.6875 557.996094 252.675781 557.996094 295.355469 C 557.996094 383.40625 486.480469 454.925781 398.8125 454.925781 Z M 486.09375 335.34375 C 481.480469 333.039062 457.640625 321.503906 453.414062 319.578125 C 449.183594 318.042969 445.722656 317.273438 442.648438 321.886719 C 439.570312 326.5 430.34375 337.652344 427.652344 340.726562 C 424.960938 343.804688 421.882812 344.1875 417.269531 341.882812 C 412.65625 339.574219 396.890625 334.574219 378.820312 318.042969 C 364.59375 305.355469 354.980469 289.589844 352.289062 284.976562 C 349.597656 280.359375 351.90625 277.667969 354.210938 275.363281 C 356.519531 273.054688 358.824219 269.59375 361.515625 266.902344 C 363.824219 264.210938 364.59375 262.289062 366.132812 258.828125 C 367.667969 255.753906 366.902344 252.675781 365.746094 250.371094 C 364.59375 248.0625 354.980469 224.222656 351.136719 214.996094 C 347.292969 205.769531 343.445312 206.921875 340.371094 206.921875 C 337.679688 206.921875 334.21875 206.921875 331.140625 206.921875 C 328.066406 206.921875 322.683594 208.074219 318.453125 213.074219 C 314.222656 217.6875 301.535156 229.605469 301.535156 253.0625 C 301.535156 276.515625 318.839844 299.203125 321.144531 302.664062 C 323.453125 305.738281 354.980469 354.183594 403.042969 374.949219 C 414.578125 379.945312 423.421875 382.636719 430.34375 384.945312 C 441.878906 388.40625 452.257812 388.019531 460.335938 386.867188 C 469.5625 385.328125 488.785156 375.332031 492.632812 364.183594 C 496.476562 353.03125 496.476562 343.417969 495.324219 341.496094 C 494.171875 339.191406 491.09375 338.035156 486.09375 335.34375 Z M 486.09375 335.34375 " fill-opacity="1" fill-rule="evenodd"/></svg>