<svg xmlns="http://www.w3.org/2000/svg" xmlns:xlink="http://www.w3.org/1999/xlink" width="1056" zoomAndPan="magnify" viewBox="0 0 792 611.999999" height="816" preserveAspectRatio="xMidYMid meet" version="1.0"><defs><clipPath id="e8c06d5094"><path d="M 118.296875 20.261719 L 689.796875 20.261719 L 689.796875 591.761719 L 118.296875 591.761719 Z M 118.296875 20.261719 " clip-rule="nonzero"/></clipPath></defs><g clip-path="url(#e8c06d5094)"><path fill="#46cc6b" d="M 689.753906 305.984375 C 689.753906 463.785156 561.828125 591.710938 404.027344 591.710938 C 246.222656 591.710938 118.296875 463.785156 118.296875 305.984375 C 118.296875 148.183594 246.222656 20.257812 404.027344 20.257812 C 561.828125 20.257812 689.753906 148.183594 689.753906 305.984375 " fill-opacity="1" fill-rule="nonzero"/></g><path fill="#ffffff" d="M 278.816406 168.914062 C 281.808594 165.238281 289.457031 156.898438 299.589844 157.003906 C 300.160156 157.011719 300.824219 157.035156 301.601562 157.113281 C 301.601562 157.113281 303.199219 157.285156 304.777344 157.699219 C 317.933594 161.203125 341.46875 187.167969 341.46875 187.167969 C 361.558594 209.332031 367.363281 210.402344 367.300781 218.566406 C 367.234375 226.210938 362.464844 232.121094 353.621094 240.9375 C 330.042969 264.4375 325.011719 266.210938 323.183594 273.570312 C 322.109375 277.894531 318.859375 286.285156 333.421875 302.542969 C 355.132812 326.777344 407.144531 376.265625 411.695312 379.300781 C 416.234375 382.328125 432.394531 392.929688 454.109375 373.238281 C 468.933594 359.796875 475.992188 343.996094 486.53125 343.039062 C 492.105469 342.523438 496.207031 345.886719 504.609375 353.039062 C 554.253906 395.269531 554.984375 402.679688 554.570312 407.0625 C 553.859375 414.644531 550.429688 421.484375 538.945312 429.800781 C 509.65625 451.003906 496.53125 469.691406 436.941406 444.949219 C 377.355469 420.203125 314.734375 357.585938 297.058594 330.816406 C 279.386719 304.054688 251.609375 263.152344 253.632812 234.871094 C 255.039062 215.199219 261.066406 198 261.066406 198 C 266.445312 184.621094 273.601562 174.945312 278.816406 168.914062 " fill-opacity="1" fill-rule="nonzero"/></svg>